<?xml version="1.0" standalone="no"?>
<!DOCTYPE svg PUBLIC "-//W3C//DTD SVG 20010904//EN"
 "http://www.w3.org/TR/2001/REC-SVG-20010904/DTD/svg10.dtd">
<svg version="1.0" xmlns="http://www.w3.org/2000/svg"
 width="150.000000pt" height="150.000000pt" viewBox="0 0 150.000000 150.000000"
 preserveAspectRatio="xMidYMid meet">
<metadata>
Created by potrace 1.14, written by Peter Selinger 2001-2017
</metadata>
<g transform="translate(0.000000,150.000000) scale(0.100000,-0.100000)"
fill="#000000" stroke="none">
<path d="M0 750 l0 -750 750 0 750 0 0 750 0 750 -750 0 -750 0 0 -750z m934
397 c136 -68 224 -184 249 -331 29 -173 -65 -364 -222 -449 -29 -16 -54 -27
-55 -25 -2 1 -16 41 -31 88 -15 47 -30 90 -32 96 -2 7 22 24 53 38 119 55 164
108 164 194 0 66 -24 115 -85 171 -41 38 -133 88 -191 105 -26 8 -57 -18 -52
-43 2 -9 40 -34 85 -57 46 -22 95 -51 109 -65 59 -55 71 -127 29 -173 -25 -27
-132 -82 -141 -73 -3 3 -36 94 -73 202 -68 197 -84 226 -117 207 -9 -5 -66
-123 -126 -263 -61 -140 -114 -258 -119 -263 -5 -6 -22 19 -41 60 -31 66 -33
75 -33 184 0 108 2 119 32 182 54 114 150 199 271 239 43 15 80 18 153 16 88
-2 103 -6 173 -40z m-250 -406 c25 -74 46 -137 46 -141 0 -4 -37 -13 -82 -19
-46 -7 -98 -14 -117 -17 -29 -5 -33 -3 -27 13 15 41 130 302 133 300 1 -1 22
-63 47 -136z m105 -314 c17 -50 31 -98 31 -105 0 -20 -137 -15 -211 8 -54 16
-169 81 -169 95 0 2 4 15 10 29 8 23 16 26 57 27 37 1 168 21 245 38 3 0 20
-41 37 -92z"/>
</g>
</svg>
